<?xml version="1.0" standalone="no"?>
<!DOCTYPE svg PUBLIC "-//W3C//DTD SVG 20010904//EN"
 "http://www.w3.org/TR/2001/REC-SVG-20010904/DTD/svg10.dtd">
<svg version="1.0" xmlns="http://www.w3.org/2000/svg"
 width="1536.000000pt" height="1024.000000pt" viewBox="0 0 1536.000000 1024.000000"
 preserveAspectRatio="xMidYMid meet">

<g transform="translate(0.000000,1024.000000) scale(0.100000,-0.100000)"
fill="#000000" stroke="none">
<path d="M8134 6986 c-64 -28 -96 -103 -74 -170 13 -40 62 -86 91 -86 18 0 19
-8 19 -122 l0 -122 80 -80 80 -80 0 -108 0 -108 -107 105 -108 105 -101 0
c-98 0 -101 1 -112 25 -15 32 -68 65 -105 65 -114 0 -160 -151 -65 -211 56
-35 147 -10 168 47 9 23 13 24 97 24 l88 -1 121 -117 121 -117 352 -528 351
-528 0 -329 0 -330 110 0 110 0 0 330 0 331 60 92 c32 51 88 137 124 192 306
470 496 768 496 779 0 3 -55 6 -122 6 l-123 -1 -111 -177 c-272 -434 -429
-681 -434 -682 -5 0 -330 496 -486 743 l-71 112 -96 3 -97 3 0 263 0 263 108
106 c100 100 110 107 147 107 76 0 124 60 105 130 -26 95 -154 104 -197 14
-14 -28 -15 -42 -7 -74 l11 -39 -98 -97 c-54 -54 -95 -102 -92 -107 3 -6 1 -7
-4 -4 -21 13 -30 -20 -29 -111 1 -50 -1 -92 -4 -92 -3 0 -29 24 -58 53 l-52
53 0 101 0 101 37 19 c52 25 76 63 76 116 0 107 -101 175 -199 133z m96 -51
c53 -27 65 -83 29 -129 -16 -21 -29 -26 -64 -26 -35 0 -48 5 -64 26 -38 49
-19 116 39 137 24 9 29 8 60 -8z m458 -8 c31 -24 -1 -87 -44 -87 -32 0 -59 42
-45 69 21 38 54 45 89 18z m-850 -589 c7 -7 12 -26 12 -43 0 -39 -16 -55 -54
-55 -56 0 -85 53 -49 92 18 20 73 24 91 6z"/>
<path d="M8619 6563 c-20 -60 -56 -165 -81 -235 l-46 -128 33 0 c32 0 34 3 52
58 l20 57 64 5 c35 3 83 3 105 2 41 -4 42 -5 64 -63 20 -56 23 -59 55 -59 l34
0 -24 63 c-13 34 -45 116 -70 182 -26 66 -55 143 -64 170 -17 49 -19 50 -62
53 l-44 2 -36 -107z m125 -70 c20 -58 35 -107 33 -109 -1 -1 -37 -4 -80 -6
-50 -2 -77 0 -75 7 17 59 74 215 79 215 3 0 22 -48 43 -107z"/>
<path d="M9000 6435 l0 -235 30 0 30 0 0 235 0 235 -30 0 -30 0 0 -235z"/>
<path d="M4611 5903 c-35 -82 -181 -431 -326 -778 -145 -346 -279 -668 -299
-713 -20 -46 -36 -86 -36 -88 0 -3 53 -3 117 -2 l117 3 100 250 c55 138 105
253 111 258 5 4 184 7 397 6 l386 -1 102 -251 c57 -139 106 -256 110 -260 3
-4 56 -6 117 -5 l111 3 -26 65 c-14 36 -143 349 -287 695 -144 347 -293 705
-331 797 l-69 168 -116 0 -116 0 -62 -147z m338 -498 l149 -370 -311 -3 c-170
-1 -311 -1 -313 0 -1 2 64 170 145 373 81 204 151 379 155 390 l8 20 9 -20 c5
-11 76 -186 158 -390z"/>
<path d="M6040 5185 l0 -865 110 0 110 0 0 380 0 380 405 0 405 0 0 95 0 95
-405 0 -405 0 0 295 0 295 480 0 480 0 0 95 0 95 -590 0 -590 0 0 -865z"/>
<path d="M7680 5185 l0 -865 110 0 110 0 0 865 0 865 -110 0 -110 0 0 -865z"/>
<path d="M10531 5998 c-12 -29 -99 -237 -193 -463 -93 -225 -244 -587 -334
-804 -90 -216 -164 -397 -164 -402 0 -6 50 -8 116 -7 l117 3 102 255 103 255
393 0 394 0 106 -255 106 -255 112 -3 c61 -1 111 1 111 6 0 4 -11 35 -24 68
-58 145 -649 1554 -676 1612 l-20 42 -113 0 -113 0 -23 -52z m289 -558 c78
-195 148 -367 155 -382 l13 -27 -314 -3 c-173 -2 -314 1 -314 5 0 8 39 108
227 585 42 106 79 189 83 185 4 -4 71 -168 150 -363z"/>
</g>
</svg>
